<?xml version="1.0" encoding="UTF-8"?>
<svg id="Layer_2" data-name="Layer 2" xmlns="http://www.w3.org/2000/svg" viewBox="0 0 136.97 33.17">
  <defs>
    <style>
      .cls-1 {
        fill: none;
        stroke: #f5be2f;
        stroke-miterlimit: 10;
      }

      .cls-2 {
        fill: #f5be2f;
      }
    </style>
  </defs>
  <g id="Layer_1-2" data-name="Layer 1">
    <line class="cls-1" x1="64.25" y1="8.16" x2="64.25" y2="22.03"/>
    <g>
      <path class="cls-2" d="M9.48,33.14c-1.93,0-3.6-.29-5.02-.86-1.42-.57-2.52-1.44-3.29-2.61-.77-1.17-1.16-2.65-1.17-4.45h5.69c.04.65.21,1.2.52,1.66s.73.8,1.28,1.03c.55.23,1.2.35,1.95.35.64,0,1.18-.08,1.62-.24.44-.16.78-.38,1.02-.66.24-.28.35-.61.35-.98,0-.33-.11-.63-.33-.88-.22-.26-.58-.49-1.08-.69-.5-.21-1.15-.39-1.97-.54l-2.2-.46c-1.99-.41-3.54-1.13-4.65-2.15-1.12-1.02-1.67-2.38-1.67-4.08,0-1.4.38-2.62,1.14-3.67s1.8-1.87,3.14-2.45c1.34-.58,2.88-.88,4.63-.88s3.33.29,4.63.88c1.3.59,2.3,1.43,3.01,2.51.71,1.08,1.07,2.35,1.09,3.8h-5.71c-.05-.73-.32-1.29-.83-1.7s-1.23-.61-2.18-.61c-.6,0-1.1.07-1.5.22-.4.15-.71.35-.91.61-.2.26-.3.56-.3.89,0,.35.1.66.31.91.21.25.54.48.99.66s1.03.35,1.73.5l1.8.37c1.22.25,2.27.59,3.15,1,.88.41,1.6.89,2.16,1.44.56.56.97,1.18,1.23,1.89.26.7.39,1.48.39,2.32,0,1.46-.36,2.71-1.08,3.73-.72,1.02-1.75,1.8-3.09,2.33-1.34.53-2.96.8-4.84.8Z"/>
      <path class="cls-2" d="M30.97,33.17c-2,0-3.8-.43-5.42-1.3-1.62-.87-2.9-2.14-3.84-3.82-.94-1.68-1.42-3.73-1.42-6.16s.47-4.51,1.42-6.19c.94-1.68,2.22-2.95,3.84-3.82,1.62-.87,3.42-1.3,5.42-1.3s3.8.43,5.41,1.3c1.61.87,2.89,2.14,3.84,3.82s1.42,3.74,1.42,6.19-.47,4.49-1.42,6.17-2.23,2.95-3.84,3.81c-1.61.86-3.42,1.3-5.41,1.3ZM30.97,27.95c.99,0,1.82-.23,2.49-.7.67-.47,1.17-1.15,1.52-2.06s.52-2,.52-3.3-.17-2.42-.52-3.32-.85-1.6-1.52-2.06c-.67-.47-1.5-.7-2.49-.7s-1.8.23-2.47.7c-.67.47-1.18,1.15-1.53,2.06-.35.91-.52,2.02-.52,3.32s.17,2.4.52,3.3c.35.9.86,1.59,1.53,2.06.67.47,1.5.7,2.47.7Z"/>
      <path class="cls-2" d="M43.95,32.86V10.9h6v17.07h9.01v4.89h-15.01Z"/>
      <path class="cls-2" d="M67.08,10.9v21.97h-6V10.9h6Z"/>
      <path class="cls-2" d="M80.05,33.17c-2,0-3.8-.43-5.42-1.3s-2.9-2.14-3.84-3.82c-.94-1.68-1.42-3.73-1.42-6.16s.47-4.51,1.42-6.19c.94-1.68,2.22-2.95,3.84-3.82s3.42-1.3,5.42-1.3,3.8.43,5.41,1.3,2.89,2.14,3.84,3.82c.95,1.68,1.42,3.74,1.42,6.19s-.47,4.49-1.42,6.17c-.95,1.68-2.23,2.95-3.84,3.81-1.61.86-3.42,1.3-5.41,1.3ZM80.05,27.95c.99,0,1.82-.23,2.49-.7s1.17-1.15,1.52-2.06.52-2,.52-3.3-.17-2.42-.52-3.32-.85-1.6-1.52-2.06-1.5-.7-2.49-.7-1.8.23-2.47.7-1.18,1.15-1.53,2.06-.52,2.02-.52,3.32.17,2.4.52,3.3.86,1.59,1.53,2.06,1.5.7,2.47.7Z"/>
      <path class="cls-2" d="M93.03,32.86V10.9h6.44l5.26,8.62c.4.67.8,1.36,1.18,2.09.38.72.76,1.52,1.14,2.38.38.87.75,1.83,1.13,2.9l-.58.38c-.05-.8-.11-1.71-.17-2.76-.06-1.04-.12-2.06-.17-3.07-.05-1-.07-1.84-.07-2.51v-8.05h6.13v21.97h-6.43l-4.91-8.02c-.49-.82-.95-1.61-1.37-2.4-.42-.78-.84-1.62-1.25-2.51-.41-.89-.87-1.9-1.37-3.02l.75-.07c.08,1.03.15,2.06.21,3.07s.11,1.95.15,2.81c.03.85.05,1.56.05,2.12v8.02h-6.13Z"/>
      <path class="cls-2" d="M126.3,33.17c-2,0-3.8-.43-5.42-1.3-1.62-.87-2.9-2.14-3.84-3.82s-1.42-3.73-1.42-6.16.47-4.51,1.42-6.19,2.22-2.95,3.84-3.82c1.62-.87,3.42-1.3,5.42-1.3s3.8.43,5.41,1.3,2.89,2.14,3.84,3.82c.95,1.68,1.42,3.74,1.42,6.19s-.47,4.49-1.42,6.17c-.95,1.68-2.23,2.95-3.84,3.81-1.61.86-3.42,1.3-5.41,1.3ZM126.3,27.95c.99,0,1.82-.23,2.49-.7s1.17-1.15,1.52-2.06.52-2,.52-3.3-.17-2.42-.52-3.32-.85-1.6-1.52-2.06-1.5-.7-2.49-.7-1.8.23-2.47.7-1.18,1.15-1.53,2.06-.52,2.02-.52,3.32.17,2.4.52,3.3.86,1.59,1.53,2.06,1.5.7,2.47.7Z"/>
    </g>
    <circle class="cls-2" cx="64.25" cy="4.12" r="4.12"/>
  </g>
</svg>